<?xml version="1.0" encoding="UTF-8"?>
<svg id="Ebene_1" data-name="Ebene 1" xmlns="http://www.w3.org/2000/svg" viewBox="0 0 500 500">
  <defs>
    <style>
      .cls-1 {
        fill: none;
      }

      .cls-2 {
        fill: #fff;
      }

      .cls-3 {
        fill: #ffe907;
      }
    </style>
  </defs>
  <circle class="cls-2" cx="250" cy="250" r="180.45"/>
  <polyline points="418.61 230.37 398.34 223.85 382.21 227.33 370.39 218.58 361.62 216.06 367.45 210.57 355.19 208.58 346.89 205.73 340.67 195.4 330.55 195.18 328.58 184.51 319.92 189.07 314.93 183.46 324.85 174.49 335.78 177.42 348.74 173.22 357.89 176.9 363.48 181.79 371.61 181.6 385.18 194.79 416.78 218.2"/>
  <polygon points="86.28 252.04 86.29 251.88 86.29 252.04 86.28 252.04"/>
  <path d="M88.54,222.76s-.03.08-.03.13v-.13h.03Z"/>
  <path d="M146.64,192.09l33.59,3.37,26.28-8.3,50.03,3.2,41.14-14.3,14.52,2.09,11.93-10.91,11.4,3.07,13.53-4.39,9.55,3.84,5.84,5.11,8.48-.2,14.72,14.04,27.76,22.38c-19.11-75.24-82.64-131.48-165.37-131.48s-154.88,60.77-167.55,140.98l64.14-28.49Z"/>
  <path d="M470.38,244.21c-.07-2.84-2.28-5.19-5.12-5.4-11.8-.87-21.95-9.63-24.05-21.82-2.11-12.2,4.53-23.87,15.38-28.64,2.61-1.15,3.9-4.1,3.02-6.81-1.36-4.18-2.84-8.3-4.44-12.36-1.04-2.65-3.93-4.11-6.67-3.33-11.4,3.24-23.95-1.52-30.11-12.27-6.15-10.73-3.91-23.95,4.63-32.15,2.06-1.97,2.26-5.2.5-7.44-2.71-3.45-5.52-6.81-8.42-10.08-1.89-2.13-5.08-2.51-7.39-.85-9.6,6.91-23,6.72-32.44-1.26-9.45-7.99-11.87-21.18-6.64-31.8,1.26-2.55.35-5.64-2.06-7.15-3.71-2.32-7.49-4.53-11.34-6.63-2.51-1.37-5.65-.63-7.26,1.74-6.65,9.8-19.32,14.22-30.94,9.94-11.62-4.28-18.4-15.85-17.12-27.62.31-2.83-1.6-5.44-4.39-6.02-4.27-.9-8.58-1.67-12.93-2.31-2.82-.42-5.51,1.35-6.21,4.11-2.9,11.48-13.3,19.96-25.67,19.91-12.37-.04-22.7-8.59-25.53-20.09-.68-2.76-3.36-4.55-6.18-4.15-4.36.61-8.68,1.35-12.95,2.21-2.8.56-4.73,3.15-4.44,5.99,1.2,11.78-5.67,23.31-17.31,27.5-11.65,4.19-24.28-.31-30.87-10.16-1.59-2.37-4.72-3.13-7.24-1.79-3.87,2.07-7.67,4.25-11.39,6.54-2.43,1.49-3.35,4.58-2.11,7.14,5.15,10.66,2.64,23.83-6.87,31.76-9.5,7.92-22.9,8.01-32.45,1.03-2.3-1.68-5.5-1.32-7.4.8-2.93,3.26-5.76,6.6-8.49,10.03-1.77,2.23-1.59,5.45.45,7.44,8.48,8.26,10.62,21.49,4.39,32.18-6.23,10.7-18.81,15.37-30.19,12.06-2.74-.8-5.63.63-6.69,3.27-1.63,4.05-3.15,8.16-4.54,12.32-.91,2.7.37,5.67,2.97,6.84,10.81,4.85,17.37,16.56,15.17,28.75-2.19,12.17-12.4,20.86-24.2,21.65-2.84.19-5.06,2.52-5.16,5.37-.08,2.44-.13,4.9-.13,7.36,0,1.94.03,3.86.07,5.79.07,2.84,2.28,5.19,5.12,5.4,11.8.87,21.95,9.63,24.05,21.82,2.11,12.2-4.53,23.87-15.38,28.64-2.61,1.15-3.9,4.1-3.02,6.81,1.36,4.18,2.84,8.3,4.44,12.36,1.04,2.65,3.93,4.11,6.67,3.33,11.4-3.24,23.95,1.52,30.11,12.27,6.15,10.73,3.91,23.95-4.63,32.15-2.06,1.97-2.26,5.2-.5,7.44,2.71,3.45,5.52,6.81,8.42,10.08,1.89,2.13,5.08,2.51,7.39.85,9.6-6.91,23-6.72,32.44,1.26,9.45,7.99,11.87,21.18,6.64,31.8-1.26,2.55-.35,5.64,2.06,7.15,3.71,2.32,7.49,4.53,11.34,6.63,2.51,1.37,5.65.63,7.26-1.74,6.65-9.8,19.32-14.22,30.94-9.94,11.62,4.28,18.4,15.85,17.12,27.62-.31,2.83,1.6,5.44,4.39,6.02,4.27.9,8.58,1.67,12.93,2.31,2.82.42,5.51-1.35,6.21-4.11,2.9-11.48,13.3-19.96,25.67-19.91,12.37.04,22.7,8.59,25.53,20.09.68,2.76,3.36,4.55,6.18,4.15,4.36-.61,8.68-1.35,12.95-2.21,2.8-.56,4.73-3.15,4.44-5.99-1.2-11.78,5.67-23.31,17.31-27.5,11.65-4.19,24.28.31,30.87,10.16,1.59,2.37,4.72,3.13,7.24,1.79,3.87-2.07,7.67-4.25,11.39-6.54,2.43-1.49,3.35-4.58,2.11-7.14-5.15-10.66-2.64-23.83,6.87-31.76,9.5-7.92,22.9-8.01,32.45-1.03,2.3,1.68,5.5,1.32,7.4-.8,2.93-3.26,5.76-6.6,8.49-10.03,1.77-2.23,1.59-5.45-.45-7.44-8.48-8.26-10.62-21.49-4.39-32.18,6.23-10.7,18.81-15.37,30.19-12.06,2.74.8,5.63-.63,6.69-3.27,1.63-4.05,3.15-8.16,4.54-12.32.91-2.7-.37-5.67-2.97-6.84-10.81-4.85-17.37-16.56-15.17-28.75,2.19-12.17,12.4-20.86,24.2-21.65,2.84-.19,5.06-2.52,5.16-5.37.08-2.44.13-4.9.13-7.36,0-1.94-.03-3.86-.07-5.79ZM250,430.45c-99.66,0-180.45-80.79-180.45-180.45S150.34,69.55,250,69.55s180.45,80.79,180.45,180.45-80.79,180.45-180.45,180.45Z"/>
  <polygon class="cls-3" points="190.38 140.81 207.31 138.37 190.22 135.9 200.77 121.78 186.53 132.43 184.03 115.08 181.57 132.05 167.84 121.78 178.34 135.83 160.74 138.37 178.17 140.89 167.84 154.71 181.54 144.47 184.03 161.65 186.56 144.09 200.77 154.71 190.38 140.81"/>
  <polygon class="cls-3" points="255.4 140.81 272.33 138.37 255.23 135.9 265.79 121.78 251.55 132.43 249.04 115.08 246.59 132.05 232.86 121.78 243.36 135.83 225.76 138.37 243.19 140.89 232.86 154.71 246.56 144.47 249.04 161.65 251.58 144.09 265.79 154.71 255.4 140.81"/>
  <polygon class="cls-3" points="337.06 138.37 319.97 135.9 330.52 121.78 316.28 132.43 313.78 115.08 311.33 132.05 297.59 121.78 308.09 135.83 290.49 138.37 307.93 140.89 297.59 154.71 311.3 144.47 313.78 161.65 316.32 144.09 330.52 154.71 320.13 140.81 337.06 138.37"/>
  <path d="M324.39,314.28c-43.83,0-57.75-2.83-56.69-8.06,2.07-10.21,20.67-13.63,18.2-21.5-3.75-11.97-103.93-14.15-103.93-17.01,0-2.48,60.86-11.37,60.86-20.33,0-4.92-38.8-2.91-38.8-4.83,0-3.29,63.82-11.64,63.82-19.72,0-3.23-16.44-1.82-16.52-4.58-.05-2.16,22.27-6.89,22.27-10.84,0-2.97-36.7,5.36-45.26-1.51-5.97-4.79,28.39-15.54,28.19-15.54-.3-.03-36.24,8.72-32.18,15.68,6.39,10.97,41.88,1.72,41.88,3.48,0,1.4-20.65,5.43-20.65,9.85,0,2.91,13.31,2.77,13.31,4.36,0,4.24-68.34,12.34-68.34,19.79,0,5.49,34.06,2.94,34.06,5.53,0,3.77-84.52,13.62-84.52,19.63,0,8.89,99.44,17.5,87.69,23.65-9.35,4.89-19.5,11.47-26.84,15-7.67,3.69-23.26,6.94-61.69,6.94h-46.98c.14.36.31.71.45,1.06-.03,0-.06,0-.09,0h.09c25.55,61.81,86.41,105.32,157.45,105.32s132.63-44,157.91-106.38h-83.71Z"/>
  <g>
    <rect class="cls-1" x="142.07" y="331.09" width="236.53" height="47.36"/>
    <path class="cls-2" d="M159.6,372.83c-2.97,0-5.81-.45-8.52-1.35-2.71-.9-5.05-2.15-7.02-3.76l3.61-6.42c1.59,1.31,3.43,2.32,5.51,3.03,2.08.71,4.22,1.06,6.42,1.06,2.54,0,4.51-.43,5.91-1.29,1.4-.86,2.1-2.08,2.1-3.65v-.03c0-1.19-.35-2.11-1.05-2.74-.7-.63-1.62-1.1-2.77-1.41-1.15-.3-2.39-.56-3.74-.77-1.61-.28-3.24-.62-4.89-1-1.65-.38-3.16-.96-4.55-1.75-1.38-.79-2.5-1.92-3.34-3.41-.84-1.49-1.26-3.48-1.26-5.98v-.03c0-4.03,1.33-7.15,3.98-9.36,2.65-2.21,6.4-3.31,11.25-3.31,2.23,0,4.51.37,6.82,1.12,2.31.75,4.46,1.81,6.45,3.2l-3.3,6.59c-3.31-2.31-6.64-3.47-9.97-3.47-2.39,0-4.23.39-5.54,1.18-1.31.79-1.96,1.89-1.96,3.31v.03c0,1.33.39,2.33,1.17,3.01.78.68,1.79,1.19,3.04,1.52,1.25.33,2.59.64,4.03.92,1.59.3,3.17.68,4.74,1.12,1.57.45,3.01,1.08,4.32,1.92,1.31.83,2.35,1.98,3.12,3.44.78,1.46,1.17,3.35,1.17,5.68v.06c0,3.98-1.37,7.06-4.12,9.25s-6.62,3.28-11.62,3.28Z"/>
    <path class="cls-2" d="M196.67,372.83c-3.03,0-5.68-.63-7.94-1.89-2.26-1.26-4.02-3.04-5.27-5.33-1.25-2.29-1.88-4.96-1.88-8.01v-11.7c0-3.05.62-5.72,1.88-8.01,1.25-2.29,3.01-4.07,5.27-5.33,2.26-1.26,4.91-1.89,7.94-1.89s5.68.63,7.94,1.89c2.26,1.26,4.02,3.04,5.27,5.33,1.25,2.29,1.88,4.96,1.88,8.01v11.7c0,3.05-.62,5.72-1.88,8.01-1.25,2.29-3.01,4.07-5.27,5.33-2.26,1.26-4.91,1.89-7.94,1.89ZM196.67,365.04c2.12,0,3.82-.66,5.1-1.97,1.28-1.32,1.92-3.07,1.92-5.27v-12.1c0-2.2-.64-3.95-1.92-5.27-1.28-1.32-2.98-1.97-5.1-1.97s-3.82.66-5.1,1.97-1.92,3.07-1.92,5.27v12.1c0,2.2.64,3.95,1.92,5.27,1.28,1.32,2.98,1.97,5.1,1.97Z"/>
    <path class="cls-2" d="M219.99,372.4v-41.31h7.78v41.31h-7.78ZM223.46,372.4v-7.5h24.2v7.5h-24.2Z"/>
    <path class="cls-2" d="M279.48,331.09l-12.16,25.37v15.94h-7.78v-15.94l-12.16-25.37h8.15l7.9,17.78,7.9-17.78h8.15Z"/>
    <path class="cls-2" d="M302.04,372.4l-13.75-41.31h8.01l8.78,27.56,8.78-27.56h8.01l-13.75,41.31h-6.08Z"/>
    <path class="cls-2" d="M339.65,372.83c-3.16,0-5.86-.6-8.08-1.8-2.23-1.2-3.92-2.95-5.1-5.24-1.17-2.29-1.76-5.08-1.76-8.35v-11.34c0-3.26.59-6.04,1.76-8.34,1.17-2.3,2.87-4.06,5.1-5.27s4.92-1.82,8.08-1.82c2.61,0,4.94.56,6.97,1.68,2.04,1.12,3.72,2.74,5.06,4.87,1.33,2.13,2.26,4.7,2.77,7.71h-8.07c-.32-1.38-.8-2.55-1.42-3.51s-1.39-1.69-2.29-2.2c-.9-.51-1.91-.77-3.03-.77-2.2,0-3.89.67-5.08,2-1.19,1.33-1.79,3.21-1.79,5.64v11.34c0,2.42.6,4.3,1.79,5.62,1.19,1.33,2.89,1.99,5.08,1.99,1.7,0,3.14-.51,4.32-1.53,1.17-1.02,1.98-2.48,2.42-4.38h8.07c-.53,2.9-1.46,5.37-2.8,7.42-1.33,2.05-3.02,3.6-5.04,4.67s-4.35,1.6-6.96,1.6Z"/>
  </g>
</svg>